<svg xmlns="http://www.w3.org/2000/svg" aria-hidden="true" style="position:absolute;width:0;height:0;overflow:hidden"><defs><symbol id="contact-4" viewBox="0 0 31 32"><path stroke-width=".78" d="m23.933 6.167.239-.3-.296-.244a13.01 13.01 0 0 0-8.327-3.001 13.19 13.19 0 0 0-3.198.409l-.568.142.349.47c1.085 1.46 2.645 3.665 4.512 7.119l.161.298.318-.118c3.534-1.312 5.651-3.319 6.81-4.776zM10.43 4.015l-.191-.252-.286.135c-3.509 1.655-6.168 4.817-7.217 8.678l-.13.477.494.016c1.932.061 6.551-.03 11.67-1.401l.483-.129-.242-.437c-1.985-3.578-3.655-5.867-4.58-7.086zm15.183 3.324-.303-.36-.298.364c-1.293 1.578-3.537 3.627-7.09 5.017l-.395.155.187.381a56.87 56.87 0 0 1 2.186 5.016l.112.296.312-.048a30.035 30.035 0 0 1 6.741-.252c.436.036.718.077 1.046.124l.215.031.4.056.043-.401A13.752 13.752 0 0 0 25.613 7.34zm-9.48 5.953-.144-.29-.311.088c-6.02 1.71-11.323 1.658-12.975 1.591l-.376-.015-.029.375-.002.026c-.029.372-.058.754-.058 1.159 0 4.085 1.767 7.731 4.554 10.226l.291.261.26-.291a38.855 38.855 0 0 1 2.775-2.816l.002-.001c2.143-1.976 4.901-4.067 7.905-4.979l.403-.123-.153-.393a57.875 57.875 0 0 0-2.142-4.82zm7.406 6.163h-.004c-.789.038-1.629.114-2.483.228l-.464.062.145.445a45.935 45.935 0 0 1 1.703 7.017l.097.616.511-.356a13.518 13.518 0 0 0 5.244-7.326l.129-.445-.46-.052a28.403 28.403 0 0 0-4.417-.19zm-4.414.925-.12-.354-.359.104c-2.639.768-5.4 2.759-7.492 4.679a37.881 37.881 0 0 0-2.482 2.508l-.322.352.408.246a13.071 13.071 0 0 0 6.783 1.902c1.868 0 3.63-.395 5.24-1.09l.272-.117-.04-.293a42.605 42.605 0 0 0-1.888-7.937zM.677 16.22c0-8.393 6.687-15.219 14.871-15.219S30.419 7.827 30.419 16.22s-6.687 15.219-14.871 15.219S.677 24.613.677 16.22z"/></symbol><symbol id="contact-3" viewBox="0 0 33 32"><path stroke-width=".4" d="M27.456 0H4.768c-2.592 0-4.7 2.103-4.7 4.688v22.625c0 2.585 2.109 4.688 4.7 4.688h22.688c2.592 0 4.701-2.103 4.701-4.688V4.688C32.157 2.103 30.048 0 27.456 0zm2.82 27.312a2.819 2.819 0 0 1-2.82 2.812H4.768a2.82 2.82 0 0 1-2.82-2.812V4.687a2.82 2.82 0 0 1 2.82-2.813h22.688a2.82 2.82 0 0 1 2.82 2.813v22.625z"/><path stroke-width=".4" d="M15.172 13.188a3.76 3.76 0 0 0-3.76-3.75H5.771v13.125h5.641a3.759 3.759 0 0 0 3.76-3.75 3.736 3.736 0 0 0-1.277-2.812 3.737 3.737 0 0 0 1.277-2.812zm-1.88 5.624a1.88 1.88 0 0 1-1.88 1.875h-3.76v-3.75h3.76a1.88 1.88 0 0 1 1.88 1.875zm-5.641-3.75v-3.75h3.76c1.037 0 1.88.841 1.88 1.875s-.843 1.875-1.88 1.875h-3.76zM21.753 13.188c-2.592 0-4.701 2.103-4.701 4.688s2.109 4.687 4.701 4.687a4.72 4.72 0 0 0 4.071-2.343l-1.628-.939a2.825 2.825 0 0 1-5.103-.468h7.36v-.937c0-2.585-2.109-4.688-4.7-4.688zm-2.659 3.75a2.825 2.825 0 0 1 5.318 0h-5.318zM17.992 9.438h7.521v1.875h-7.521V9.438z"/></symbol><symbol id="contact-2" viewBox="0 0 31 32"><path stroke-width=".78" d="M9.496 1.009h.39v-.008h12.413c4.655 0 8.466 3.89 8.466 8.673v13.092c0 4.783-3.811 8.673-8.459 8.673H9.495c-4.656 0-8.473-3.884-8.473-8.658V9.682c0-4.782 3.818-8.673 8.473-8.673zM2.59 9.689v13.1c0 3.892 3.065 7.037 6.906 7.037h12.811c3.827 0 6.891-3.147 6.891-7.052V9.682c0-3.906-3.064-7.052-6.898-7.052H9.496c-3.834 0-6.898 3.147-6.906 7.059zm21.919-3.068c0-.46.354-.81.784-.81s.784.35.784.81-.354.81-.784.81a.792.792 0 0 1-.784-.81zM8.074 16.224c0-4.414 3.531-8.013 7.828-8.013s7.828 3.598 7.828 8.013c0 4.414-3.531 8.013-7.828 8.013s-7.828-3.598-7.828-8.013zm14.087 0c0-3.538-2.779-6.392-6.26-6.392s-6.26 2.854-6.26 6.392 2.779 6.392 6.26 6.392c3.482 0 6.26-2.854 6.26-6.392z"/></symbol><symbol id="contact-1" viewBox="0 0 32 32"><path stroke-width=".39" d="M26.985.502H4.82C2.288.502.228 2.557.228 5.082v22.106c0 2.525 2.06 4.58 4.592 4.58h22.165c2.532 0 4.592-2.055 4.592-4.58V5.082c0-2.525-2.06-4.58-4.592-4.58zm2.756 26.685a2.755 2.755 0 0 1-2.755 2.748H4.821a2.755 2.755 0 0 1-2.755-2.748V5.081a2.755 2.755 0 0 1 2.755-2.748h22.165a2.755 2.755 0 0 1 2.755 2.748v22.106z"/><path d="M24.523 23.164h-3.365v-5.621c0-.388-.029-.771-.126-1.149-.402-1.56-2.139-1.469-2.831-.729-.347.372-.574.791-.584 1.31-.002.123-.009.247-.009.371v5.817h-3.359V12.732h3.357v1.399l.027.012.072-.097c.337-.467.723-.882 1.237-1.162.574-.313 1.194-.418 1.839-.4.699.02 1.361.178 1.959.553.766.482 1.232 1.187 1.506 2.033.213.659.283 1.339.283 2.028.002 1.981.001 3.963.001 5.944 0 .039-.004.078-.006.122z"/><path d="M24.523 23.164v.024h.023l.001-.023-.024-.001zm-3.365 0h-.024v.024h.024v-.024zm0-5.621zm-.126-1.149.023-.006-.023.006zm-2.831-.73zm-.584 1.311zm-.009.37zm0 5.818v.024h.024v-.024h-.024zm-3.36 0h-.024v.024h.024v-.024zm0-10.431v-.024h-.024v.024h.024zm3.358 0h.024v-.024h-.024v.024zm0 1.399h-.024v.016l.014.006.009-.022zm.027.012-.009.022.017.007.011-.015-.019-.014zm.072-.098.019.014-.019-.014zm1.237-1.162zm1.839-.399zm1.958.553zm1.506 2.033zm.283 2.027zm.001 5.945zm-.006.098H20.939v.048H24.523v-.048zm-3.341.024h-.048.048zm0-.155v-5.466h-.048v5.466h.048zm0-5.466c0-.389-.029-.774-.127-1.155l-.046.012c.097.376.125.756.125 1.143h.048zm-.127-1.155c-.204-.79-.747-1.163-1.327-1.245-.578-.081-1.193.129-1.544.505l.035.033c.34-.363.939-.569 1.503-.49.562.079 1.089.439 1.287 1.209l.046-.012zm-2.871-.74c-.35.374-.581.8-.59 1.326l.048.001c.009-.511.233-.926.577-1.294l-.035-.033zm-.59 1.326c-.002.122-.009.248-.009.371h.048c0-.124.007-.245.009-.37l-.048-.001zm-.01.371-.001 5.657h.048v-5.657h-.048zm0 5.658h.048-.048zm.024.136H14.04v.048H17.608v-.048zm-3.336.024V12.923h-.048V23.163h.048zm-.024-10.408H17.795v-.048H14.248v.048zm3.334-.023V14.268h.048V12.732h-.048zm.014 1.421.027.012.018-.044-.027-.012-.019.044zm.056.004c.024-.032.049-.065.072-.098l-.039-.028-.072.097.038.028zm.072-.098c.335-.466.72-.877 1.229-1.155l-.023-.042c-.518.283-.907.7-1.245 1.169l.039.028zm1.229-1.155c.569-.311 1.185-.415 1.827-.397l.001-.048c-.648-.019-1.272.087-1.851.402l.023.042zm1.827-.396c.695.02 1.354.177 1.947.55l.025-.04c-.602-.379-1.269-.537-1.971-.557l-.001.048zm1.947.549c.76.478 1.224 1.178 1.495 2.02l.046-.015c-.275-.85-.744-1.56-1.516-2.046l-.025.04zm1.495 2.02c.212.656.282 1.333.282 2.02h.048c-.001-.69-.071-1.373-.285-2.035l-.046.015zm.282 2.02c.002 1.981.001 3.963.001 5.944h.048v-5.944h-.048zm.001 5.945c0 .038-.003.075-.006.121l.048.003c.002-.044.006-.084.006-.124h-.048zM12.184 23.158H8.867V12.741h3.317v10.417zM10.669 7.549c.523-.001.969.185 1.285.502s.502.767.503 1.295c.002.522-.185.968-.505 1.283s-.774.5-1.307.5c-1.04.001-1.781-.742-1.783-1.787s.75-1.791 1.808-1.793z"/></symbol><symbol id="black-star" viewBox="0 0 22 20"><path fill="#070707" d="M9.793.86c.3-.92 1.602-.92 1.902 0l1.751 5.374a1 1 0 0 0 .95.69h5.662c.969 0 1.371 1.241.586 1.81l-4.575 3.315a1 1 0 0 0-.364 1.12l1.749 5.366c.3.92-.753 1.688-1.538 1.12l-4.585-3.323a1 1 0 0 0-1.174 0l-4.585 3.322c-.784.569-1.838-.198-1.538-1.12l1.749-5.366a1 1 0 0 0-.364-1.12L.844 8.735c-.785-.569-.383-1.81.587-1.81h5.66a1 1 0 0 0 .951-.69L9.793.86Z"/></symbol><symbol id="gray-star" viewBox="0 0 22 20"><path fill="#E5E5E5" d="M10.182.86c.3-.92 1.601-.92 1.901 0l1.751 5.374a1 1 0 0 0 .951.69h5.661c.97 0 1.372 1.241.587 1.81l-4.575 3.315a1 1 0 0 0-.364 1.12l1.748 5.366c.3.92-.753 1.688-1.537 1.12l-4.586-3.323a1 1 0 0 0-1.173 0L5.96 19.654c-.784.569-1.837-.198-1.537-1.12l1.748-5.366a1 1 0 0 0-.364-1.12L1.232 8.735c-.785-.569-.382-1.81.587-1.81h5.66a1 1 0 0 0 .952-.69L10.18.86Z"/></symbol></defs></svg>